<svg width="1400" height="980" viewBox="0 0 1400 980" fill="none" xmlns="http://www.w3.org/2000/svg">
  <rect width="1400" height="980" fill="#EEF2E8"/>
  <rect width="1400" height="980" fill="url(#paint0_linear_160_21)"/>
  <path d="M0 256C146 184 303 161 475 179C627 194 757 246 888 283C1019 320 1170 322 1400 246V980H0V256Z" fill="#C7D8B1"/>
  <path d="M0 430C134 396 246 392 372 430C501 469 588 544 706 580C825 617 946 614 1078 573C1186 540 1295 523 1400 533V980H0V430Z" fill="#8EAE68"/>
  <path d="M0 594C140 591 276 643 401 711C502 766 604 802 736 807C882 813 995 770 1104 712C1202 661 1299 632 1400 640V980H0V594Z" fill="#67874F"/>
  <path d="M0 723C110 738 217 789 314 849C430 921 552 964 705 963C865 961 989 911 1108 853C1205 806 1300 780 1400 783V980H0V723Z" fill="#46643A"/>
  <circle cx="1138" cy="168" r="52" fill="#F7D98C"/>
  <path d="M72 678H1290V980H72V678Z" fill="#DDAE68"/>
  <path d="M72 719H1290V980H72V719Z" fill="#C59357"/>
  <path d="M72 768H1290V980H72V768Z" fill="#AE7B46"/>
  <path d="M72 836H1290V980H72V836Z" fill="#936738"/>
  <path d="M72 678C182 642 279 622 395 621C524 620 640 648 764 681C888 714 992 727 1091 725C1172 724 1240 714 1290 699V748C1193 773 1092 783 975 778C851 772 742 744 622 711C502 678 391 662 276 673C210 679 146 693 72 719V678Z" fill="#E8B76C"/>
  <path d="M72 767C180 730 279 708 396 706C520 704 635 730 756 761C883 793 991 808 1092 806C1170 804 1237 795 1290 780V830C1193 854 1093 864 978 861C854 858 744 829 623 794C499 758 387 746 272 758C206 764 143 779 72 805V767Z" fill="#E2B165"/>
  <path d="M72 837C177 801 274 780 388 778C504 777 617 797 742 825C870 854 981 868 1087 867C1167 867 1235 857 1290 843V891C1188 913 1089 923 977 921C853 919 741 893 617 861C494 829 383 818 270 831C204 839 141 854 72 880V837Z" fill="#D9A358"/>
  <path d="M0 643H1400V678H0V643Z" fill="#547245"/>
  <path d="M344 572L468 646L344 720L220 646L344 572Z" fill="#FBF8F1"/>
  <path d="M242 646H446V780H242V646Z" fill="#F6F0E2"/>
  <path d="M304 690H384V780H304V690Z" fill="#C56F46"/>
  <path d="M484 606L594 668L484 730L374 668L484 606Z" fill="#FAF6EE"/>
  <path d="M394 668H574V782H394V668Z" fill="#F5EDDF"/>
  <path d="M446 712H518V782H446V712Z" fill="#D38055"/>
  <path d="M810 518C876 472 967 456 1049 472C1128 488 1204 536 1264 612V734H810V518Z" fill="#F7F7F2"/>
  <path d="M840 548C897 513 970 503 1039 516C1110 529 1178 571 1230 639V734H840V548Z" fill="#E4ECD8"/>
  <path d="M878 584C924 556 983 549 1039 560C1095 572 1149 604 1191 658" stroke="#FFFFFF" stroke-width="16" stroke-linecap="round"/>
  <path d="M950 624C985 604 1027 601 1067 610C1107 620 1143 644 1172 676" stroke="#FFFFFF" stroke-width="12" stroke-linecap="round"/>
  <defs>
    <linearGradient id="paint0_linear_160_21" x1="700" y1="0" x2="700" y2="980" gradientUnits="userSpaceOnUse">
      <stop stop-color="#F7EEDA"/>
      <stop offset="1" stop-color="#E8EEE2"/>
    </linearGradient>
  </defs>
</svg>
