<svg width="1400" height="980" viewBox="0 0 1400 980" fill="none" xmlns="http://www.w3.org/2000/svg">
  <rect width="1400" height="980" fill="#EDF1E8"/>
  <rect width="1400" height="980" fill="url(#paint0_linear_160_22)"/>
  <path d="M0 246C170 184 325 170 486 191C637 210 769 263 912 284C1057 305 1218 290 1400 235V980H0V246Z" fill="#C7D7B8"/>
  <path d="M0 422C157 409 292 442 430 502C549 553 660 596 798 601C939 605 1042 565 1160 525C1245 497 1325 483 1400 486V980H0V422Z" fill="#AABF82"/>
  <path d="M0 574C148 579 279 635 424 702C548 758 664 795 819 799C969 803 1083 767 1194 715C1272 679 1342 656 1400 650V980H0V574Z" fill="#77925E"/>
  <path d="M0 724C162 747 311 821 458 893C565 945 670 968 799 967C959 965 1100 907 1234 842C1294 813 1350 790 1400 776V980H0V724Z" fill="#4D6841"/>
  <circle cx="232" cy="160" r="46" fill="#F2D17F"/>
  <path d="M86 656H1320V980H86V656Z" fill="#88A06B"/>
  <path d="M86 702H1320V750H86V702Z" fill="#77905B"/>
  <path d="M86 782H1320V832H86V782Z" fill="#657E4F"/>
  <path d="M86 862H1320V914H86V862Z" fill="#556943"/>
  <path d="M86 656C183 627 281 613 390 615C534 618 643 654 756 684C870 714 981 733 1110 726C1180 723 1248 715 1320 699V741C1228 762 1140 771 1031 766C894 761 780 729 666 698C551 666 441 644 314 647C233 649 160 659 86 675V656Z" fill="#A4B97E"/>
  <path d="M86 741C186 711 284 696 394 698C536 700 650 736 766 766C881 796 991 814 1117 808C1185 805 1253 797 1320 781V824C1229 844 1142 853 1035 848C898 842 782 810 667 779C551 747 440 726 314 729C235 731 161 741 86 758V741Z" fill="#BACC8D"/>
  <path d="M86 824C188 794 287 778 398 780C541 782 655 817 773 847C889 876 1000 894 1125 888C1190 885 1255 877 1320 861V903C1230 923 1145 933 1040 929C902 924 787 892 671 861C555 829 444 808 320 811C239 812 164 823 86 841V824Z" fill="#D7E3B1"/>
  <path d="M1084 488L1161 529L1084 570L1007 529L1084 488Z" fill="#FBF6EC"/>
  <path d="M1018 529H1150V760H1018V529Z" fill="#F4EFE1"/>
  <path d="M1056 574H1112V760H1056V574Z" fill="#D27A50"/>
  <rect x="1168" y="500" width="89" height="260" rx="8" fill="#F8F4EA"/>
  <rect x="1268" y="540" width="48" height="220" rx="8" fill="#EEE7D9"/>
  <rect x="1004" y="760" width="339" height="34" fill="#8E6A42"/>
  <defs>
    <linearGradient id="paint0_linear_160_22" x1="700" y1="0" x2="700" y2="980" gradientUnits="userSpaceOnUse">
      <stop stop-color="#F4EAD6"/>
      <stop offset="1" stop-color="#E6ECE0"/>
    </linearGradient>
  </defs>
</svg>
