<svg width="1400" height="980" viewBox="0 0 1400 980" fill="none" xmlns="http://www.w3.org/2000/svg">
  <rect width="1400" height="980" fill="#F5EFE3"/>
  <rect width="1400" height="980" fill="url(#paint0_linear_160_23)"/>
  <path d="M0 274C139 208 284 177 438 186C580 194 700 241 824 254C949 266 1072 246 1197 208C1277 184 1345 177 1400 182V980H0V274Z" fill="#DED7C4"/>
  <path d="M0 448C144 424 269 443 397 494C519 543 625 602 764 616C903 630 1024 601 1148 556C1241 523 1324 496 1400 480V980H0V448Z" fill="#C7C090"/>
  <path d="M0 602C146 605 268 658 399 730C519 795 629 839 761 839C910 839 1031 784 1146 716C1247 657 1328 617 1400 597V980H0V602Z" fill="#9EB176"/>
  <path d="M0 734C145 755 278 822 412 892C519 947 618 968 741 967C893 966 1038 903 1178 828C1263 781 1337 744 1400 720V980H0V734Z" fill="#687D51"/>
  <circle cx="1174" cy="154" r="50" fill="#F0CF84"/>
  <path d="M146 819C214 785 308 761 384 770C472 781 547 836 602 909H146V819Z" fill="#F9F6EE"/>
  <path d="M180 849C232 824 301 808 362 814C426 821 484 855 531 909H180V849Z" fill="#EFE8DA"/>
  <path d="M838 610C901 561 989 540 1069 550C1154 562 1232 612 1295 692V826H838V610Z" fill="#FBFAF5"/>
  <path d="M872 645C927 606 998 591 1064 599C1132 608 1197 648 1248 713V826H872V645Z" fill="#F0EBDF"/>
  <path d="M964 826H1315V878H964V826Z" fill="#E7DDC9"/>
  <path d="M1050 783H1143V878H1050V783Z" fill="#CF7750"/>
  <path d="M262 588C315 552 371 535 440 532C536 528 612 562 705 613C793 661 885 690 999 686C1076 683 1148 665 1220 634V670C1124 706 1028 722 915 718C809 714 717 687 628 646C541 606 463 577 379 579C339 581 301 588 262 602V588Z" fill="#C7A468"/>
  <path d="M240 662C300 624 366 603 445 602C537 600 619 633 712 680C800 725 892 750 1001 746C1074 743 1145 727 1213 700V742C1122 775 1030 789 921 786C814 783 720 754 628 711C538 669 460 647 379 648C331 649 285 658 240 676V662Z" fill="#B78F52"/>
  <path d="M216 734C284 698 354 678 437 677C527 677 610 708 704 753C793 796 887 819 998 816C1072 814 1141 799 1207 775V816C1118 848 1029 863 922 861C814 859 719 831 626 788C535 746 457 724 377 724C321 724 267 734 216 750V734Z" fill="#A17643"/>
  <path d="M0 575H1400V602H0V575Z" fill="#8A9964"/>
  <defs>
    <linearGradient id="paint0_linear_160_23" x1="700" y1="0" x2="700" y2="980" gradientUnits="userSpaceOnUse">
      <stop stop-color="#F6EDD9"/>
      <stop offset="1" stop-color="#E9EEE1"/>
    </linearGradient>
  </defs>
</svg>
